# AST/ASF file generated using VICON BodyLanguage
# -----------------------------------------------
:version 1.10
:name VICON
:units
  mass 1.0
  length 0.45
  angle deg
:documentation
   .ast/.asf automatically generated from VICON data using
   VICON BodyBuilder and BodyLanguage model FoxedUp or BRILLIANT.MOD
:root
   order TX TY TZ RX RY RZ
   axis XYZ
   position 0 0 0  
   orientation 0 0 0 
:bonedata
  begin
     id 1 
     name lhipjoint
     direction 0.690799 -0.707083 0.151096 
     length 2.54797 
     axis 0 0 0  XYZ
  end
  begin
     id 2 
     name lfemur
     direction 0.34202 -0.939693 0  
     length 7.21646  
     axis 0 0 20  XYZ
    dof rx ry rz
    limits (-160.0 20.0)
           (-70.0 70.0)
           (-60.0 70.0)
  end
  begin
     id 3 
     name ltibia
     direction 0.34202 -0.939693 0   
     length 8.16759   
     axis 0 0 20   XYZ
    dof rx
    limits (-10.0 170.0)
  end
  begin
     id 4 
     name lfoot
     direction 0.0487203 -0.133858 0.989802   
     length 1.93375   
     axis -90 7.62852e-016 20   XYZ
    dof rx rz
    limits (-45.0 90.0)
           (-70.0 20.0)
  end
  begin
     id 5 
     name ltoes
     direction 1.53453e-011 -4.21783e-011 1   
     length 0.979747   
     axis -90 7.62852e-016 20   XYZ
    dof rx
    limits (-90.0 20.0)
  end
  begin
     id 6 
     name rhipjoint
     direction -0.694693 -0.703425 0.150315   
     length 2.56122  
     axis 0 0 0  XYZ 
  end
  begin
     id 7 
     name rfemur
     direction -0.34202 -0.939693 0   
     length 7.36786   
     axis 0 0 -20   XYZ
    dof rx ry rz
    limits (-160.0 20.0)
           (-70.0 70.0)
           (-70.0 60.0)
  end
  begin
     id 8 
     name rtibia
     direction -0.34202 -0.939693 0   
     length 8.07288   
     axis 0 0 -20   XYZ
    dof rx
    limits (-10.0 170.0)
 end
 begin
     id 9 
     name rfoot
     direction -0.0428397 -0.117701 0.992125   
     length 1.88295  
     axis -90 -7.62852e-016 -20   XYZ
    dof rx rz
    limits (-45.0 90.0)
           (-20.0 70.0)
  end
  begin
     id 10 
     name rtoes
     direction -1.53456e-011 -4.2187e-011 1   
     length 0.955578   
     axis -90 -7.62852e-016 -20   XYZ
    dof rx
    limits (-90.0 20.0)
  end
  begin
     id 11 
     name lowerback
     direction 0.0288145 0.999398 -0.0193241   
     length 1.92149   
     axis 0 0 0   XYZ
    dof rx ry rz
    limits (-20.0 45.0)
           (-30.0 30.0)
           (-30.0 30.0)
  end
  begin
     id 12 
     name upperback
     direction 0.0233784 0.998099 0.0570278   
     length 1.90435   
     axis 0 0 0   XYZ
    dof rx ry rz
    limits (-20.0 45.0)
           (-30.0 30.0)
           (-30.0 30.0)
  end
  begin
     id 13 
     name thorax
     direction 0.0096694 0.997833 0.0650817   
     length 1.9111   
     axis 0 0 0   XYZ
    dof rx ry rz
    limits (-20.0 45.0)
           (-30.0 30.0)
           (-30.0 30.0)
  end
  begin
     id 14 
     name lowerneck
     direction 0.00516803 0.999916 0.0118722   
     length 1.74664   
     axis 0 0 0   XYZ
    dof rx ry rz
    limits (-20.0 45.0)
           (-30.0 30.0)
           (-30.0 30.0)
  end
  begin
     id 15 
     name upperneck
     direction -0.0510851 0.996117 -0.071696   
     length 1.68498   
     axis 0 0 0   XYZ
    dof rx ry rz
    limits (-20.0 45.0)
           (-30.0 30.0)
           (-30.0 30.0)
  end
  begin
     id 16
     name head
     direction -0.019188 0.999436 -0.0275702  
     length 1.83483  
     axis 0 0 0   XYZ
    dof rx ry rz
    limits (-20.0 45.0)
           (-30.0 30.0)
           (-30.0 30.0)
  end
  begin
     id 17 
     name lclavicle
     direction 0.967006 0.248456 -0.0562957  
     length 3.39395  
     axis 0 0 0   XYZ
    dof ry rz
    limits (-20.0 10.0)
           (0.0 20.0)
  end
  begin
     id 18 
     name lhumerus
     direction 1 -4.48962e-011 -5.62711e-019   
     length 5.24318   
     axis 180 -30 -90   XYZ
    dof rx ry rz
    limits (-60.0 90.0)
           (-90.0 90.0)
           (-90.0 90.0)
  end
  begin
     id 19
     name lradius
     direction 1 -4.48966e-011 7.90625e-027   
     length 2.98999   
     axis 180 -30 -90   XYZ
    dof rx
    limits (-10.0 170.0)
  end
  begin
     id 20
     name lwrist
     direction 1 -4.48959e-011 1.61068e-026   
     length 1.49499   
     axis -9.31229e-015 90 90   XYZ
    dof ry
    limits (-180.0 0.0)
 end
  begin
     id 21 
     name lhand
     direction 1 -4.49017e-011 3.22136e-026   
     length 0.726745   
     axis -2.0555e-014 90 90   XYZ
    dof rx rz
    limits (-90.0 90.0)
           (-45.0 45.0)
  end
  begin
     id 22 
     name lfingers
     direction 1 -4.4898e-011 6.44272e-026   
     length 0.58592   
     axis -4.11101e-014 90 90   XYZ
    dof rx
    limits (0.0 90.0)
  end
  begin
     id 23
     name lthumb
     direction 0.707107 -6.34922e-011 0.707107   
     length 0.841268   
     axis -90 45 2.85299e-015   XYZ
    dof rx rz
    limits (-45.0 45.0)
           (-45.0 45.0)
  end
  begin
     id 24 
     name rclavicle
     direction -0.972232 0.230238 0.0419005   
     length 3.40416  
     axis 0 0 0   XYZ 
    dof ry rz
    limits (-10.0 20.0)
           (-20.0 0.0)
  end
  begin
     id 25 
     name rhumerus
     direction -1 -4.48976e-011 2.48487e-027  
     length 5.37045   
     axis 180 30 90   XYZ
    dof rx ry rz
    limits (-90.0 60.0)
           (-90.0 90.0)
           (-90.0 90.0)
  end
  begin
     id 26 
     name rradius
     direction -1 -4.48942e-011 7.87951e-027   
     length 2.92792   
     axis 180 30 90   XYZ
    dof rx
    limits (-10.0 170.0)
  end
  begin
     id 27 
     name rwrist
     direction -1 -4.48969e-011 1.61068e-026   
     length 1.46396   
     axis -9.31229e-015 -90 -90   XYZ
    dof ry
    limits (-180.0 0.0)
  end
  begin
     id 28
     name rhand
     direction -1 -4.49043e-011 3.22136e-026   
     length 0.784497   
     axis -2.0555e-014 -90 -90   XYZ
    dof rx rz
    limits (-90.0 90.0)
           (-45.0 45.0)
  end
  begin
     id 29
     name rfingers
     direction -1 -4.48823e-011 6.44272e-026   
     length 0.632482   
     axis -4.11101e-014 -90 -90   XYZ
    dof rx
    limits (0.0 90.0)
  end
  begin
     id 30
     name rthumb
     direction -0.707107 -6.34923e-011 0.707107   
     length 0.908121   
     axis -90 -45 -2.85299e-015   XYZ
    dof rx rz
    limits (-45.0 45.0)
           (-45.0 45.0)
  end
:hierarchy
  begin
    root lhipjoint rhipjoint lowerback
    lhipjoint lfemur
    lfemur ltibia
    ltibia lfoot
    lfoot ltoes
    rhipjoint rfemur
    rfemur rtibia
    rtibia rfoot
    rfoot rtoes
    lowerback upperback
    upperback thorax
    thorax lowerneck lclavicle rclavicle
    lowerneck upperneck
    upperneck head
    lclavicle lhumerus
    lhumerus lradius
    lradius lwrist
    lwrist lhand lthumb
    lhand lfingers
    rclavicle rhumerus
    rhumerus rradius
    rradius rwrist
    rwrist rhand rthumb
    rhand rfingers
  end

#!OML:ASF E:\Style6\Style6.ASF
:FULLY-SPECIFIED
:DEGREES
1619
root 0.280697 16.2103 -1.87799 20.5772 27.3205 -1.22396
lowerback 25.8394 1.63071 7.61446
upperback 6.62217 4.21131 0.823603
thorax -6.44099 2.00562 -4.72232
lowerneck -1.29188 -4.08963 4.73422
upperneck -16.0703 -5.69895 -2.40485
head -4.81869 -2.93001 -1.30388
rclavicle -8.66701e-014 -1.51076e-014
rhumerus 77.2243 -9.77642 -51.1228
rradius 34.348
rwrist 43.5929
rhand 20.0765 0.978486
rfingers 7.12502
rthumb 44.6064 -22.6745
lclavicle -8.66701e-014 -1.51076e-014
lhumerus -35.7111 -2.65682 73.6087
lradius 90.5118
lwrist 24.6639
lhand -22.1796 39.7549
lfingers 7.12502
lthumb 4.23536 69.6925
rfemur -60.2194 -30.1368 33.2434
rtibia 61.24
rfoot -19.1846 -7.66445
rtoes -5.92329
lfemur -64.0497 -11.4243 -14.5517
ltibia 58.2121
lfoot -11.7991 -6.15334
ltoes -15.5772
1620
root 0.279352 16.2036 -1.87558 20.6534 27.6119 -1.2439
lowerback 25.8387 1.6559 7.70483
upperback 6.6211 4.2628 0.771231
thorax -6.42309 2.03097 -4.8459
lowerneck -1.47086 -4.11158 4.88244
upperneck -16.0391 -5.74333 -2.50299
head -4.78825 -2.95581 -1.36082
rclavicle 5.40694e-014 -6.20208e-014
rhumerus 77.1622 -9.76998 -51.1476
rradius 34.4472
rwrist 43.2885
rhand 20.2162 0.734262
rfingers 7.12502
rthumb 44.7364 -22.8684
lclavicle 5.40694e-014 -6.20208e-014
lhumerus -35.7397 -2.58647 73.4854
lradius 90.6351
lwrist 24.6865
lhand -22.1274 39.5027
lfingers 7.12502
lthumb 4.28572 69.4394
rfemur -60.3775 -30.3233 33.4068
rtibia 61.3318
rfoot -19.2806 -7.66544
rtoes -5.71546
lfemur -64.2296 -11.5264 -14.4709
ltibia 58.2514
lfoot -11.797 -6.31149
ltoes -15.4021
1621
root 0.276622 16.1974 -1.87454 20.7273 27.8732 -1.28044
lowerback 25.8655 1.69931 7.77521
upperback 6.6145 4.3363 0.735616
thorax -6.425 2.0656 -4.94788
lowerneck -1.64227 -4.11439 4.99512
upperneck -16.0257 -5.76328 -2.60682
head -4.76268 -2.967 -1.41455
rclavicle 1.11319e-014 3.65764e-014
rhumerus 77.0587 -9.79007 -50.8331
rradius 34.5966
rwrist 42.7861
rhand 20.4006 0.559683
rfingers 7.12502
rthumb 44.9081 -22.976
lclavicle 1.11319e-014 3.65764e-014
lhumerus -35.7614 -2.5113 73.3621
lradius 90.7898
lwrist 24.7294
lhand -22.1278 39.7198
lfingers 7.12502
lthumb 4.28539 69.6565
rfemur -60.5361 -30.4537 33.5776
rtibia 61.4169
rfoot -19.3733 -7.68554
rtoes -5.61697
lfemur -64.4157 -11.5916 -14.3982
ltibia 58.2865
lfoot -11.8584 -6.36195
ltoes -16.3336
1622
root 0.274588 16.19 -1.87423 20.9384 28.1444 -1.29784
lowerback 25.7258 1.74455 7.7885
upperback 6.58669 4.3858 0.724595
thorax -6.37763 2.09105 -4.97393
lowerneck -1.84615 -4.11343 4.98208
upperneck -15.948 -5.77023 -2.62148
head -4.70519 -2.96973 -1.42214
rclavicle -9.14409e-014 6.36111e-015
rhumerus 77.1057 -9.71878 -50.7852
rradius 34.5831
rwrist 42.5997
rhand 20.4062 0.42483
rfingers 7.12502
rthumb 44.9133 -23.1088
lclavicle -9.14409e-014 6.36111e-015
lhumerus -35.7808 -2.3666 73.2904
lradius 90.8863
lwrist 24.7311
lhand -22.1265 39.8557
lfingers 7.12502
lthumb 4.28662 69.7923
rfemur -60.8668 -30.5695 33.8174
rtibia 61.4937
rfoot -19.4366 -7.71072
rtoes -5.46486
lfemur -64.7461 -11.6709 -14.3065
ltibia 58.3136
lfoot -11.8546 -6.43535
ltoes -16.9225
1623
root 0.271133 16.1854 -1.87164 21.0677 28.4326 -1.33285
lowerback 25.6569 1.81072 7.82929
upperback 6.54474 4.47834 0.741093
thorax -6.37562 2.13392 -5.00233
lowerneck -1.91458 -4.21001 4.9179
upperneck -15.8972 -5.90458 -2.60914
head -4.68138 -3.03346 -1.40428
rclavicle 1.19271e-014 9.54166e-015
rhumerus 77.0707 -9.67371 -50.8184
rradius 34.5499
rwrist 42.6999
rhand 20.4295 0.274262
rfingers 7.12502
rthumb 44.935 -23.2509
lclavicle 1.19271e-014 9.54166e-015
lhumerus -35.8223 -2.26818 73.2924
lradius 90.9223
lwrist 24.7035
lhand -21.8407 39.7775
lfingers 7.12502
lthumb 4.56257 69.7084
rfemur -61.075 -30.6961 34.0278
rtibia 61.5502
rfoot -19.5187 -7.7928
rtoes -5.28309
lfemur -64.9651 -11.7438 -14.1893
ltibia 58.3299
lfoot -11.8187 -6.69282
ltoes -16.2797
1624
root 0.26858 16.1858 -1.86845 21.054 28.7029 -1.33432
lowerback 25.7996 1.87983 7.91283
upperback 6.49768 4.60242 0.730727
thorax -6.47433 2.18592 -5.10754
lowerneck -1.79952 -4.34936 4.84107
upperneck -15.9645 -6.08708 -2.55936
head -4.72474 -3.12084 -1.36532
rclavicle 1.19271e-014 -1.19271e-014
rhumerus 76.913 -9.65845 -50.7365
rradius 34.5356
rwrist 42.714
rhand 20.5565 0.111439
rfingers 7.12502
rthumb 45.0532 -23.3672
lclavicle 1.19271e-014 -1.19271e-014
lhumerus -35.9424 -2.32534 73.2906
lradius 90.9964
lwrist 24.7583
lhand -21.5947 39.5423
lfingers 7.12502
lthumb 4.80012 69.4679
rfemur -61.0854 -30.8986 34.1213
rtibia 61.5925
rfoot -19.5994 -7.77879
rtoes -5.12419
lfemur -64.9809 -11.8249 -14.1507
ltibia 58.3379
lfoot -11.8131 -6.92613
ltoes -15.7945
1625
root 0.266606 16.1863 -1.86317 21.071 28.904 -1.16552
lowerback 25.9889 1.95164 7.77626
upperback 6.48806 4.67353 0.686739
thorax -6.57815 2.21565 -5.1124
lowerneck -1.77122 -4.42992 4.82902
upperneck -15.9998 -6.19728 -2.56336
head -4.74445 -3.17381 -1.35884
rclavicle 7.79236e-014 -1.27222e-014
rhumerus 76.9406 -9.55118 -51.091
rradius 34.4211
rwrist 43.0646
rhand 20.5036 0.146953
rfingers 7.12502
rthumb 45.0039 -23.3511
lclavicle 7.79236e-014 -1.27222e-014
lhumerus -36.0795 -2.2837 73.2334
lradius 91.1075
lwrist 24.7837
lhand -21.4258 39.0944
lfingers 7.12502
lthumb 4.96323 69.0162
rfemur -61.0313 -31.1014 33.9849
rtibia 61.6567
rfoot -19.6508 -7.79819
rtoes -5.31677
lfemur -64.9134 -11.9444 -14.2945
ltibia 58.3368
lfoot -11.8436 -7.08667
ltoes -15.6182
1626
root 0.264473 16.1834 -1.8597 21.0503 29.2404 -1.21429
lowerback 26.0701 1.94986 7.88089
upperback 6.49592 4.7058 0.677885
thorax -6.59514 2.23001 -5.19575
lowerneck -1.87553 -4.46681 4.83251
upperneck -15.9937 -6.24968 -2.55638
head -4.72736 -3.20051 -1.35778
rclavicle -3.57812e-014 8.34896e-014
rhumerus 77.1346 -9.41576 -51.5902
rradius 34.2115
rwrist 43.4722
rhand 20.3637 0.274315
rfingers 7.12502
rthumb 44.8737 -23.2748
lclavicle -3.57812e-014 8.34896e-014
lhumerus -36.1703 -2.14179 73.1441
lradius 91.2307
lwrist 24.6861
lhand -21.2581 38.9342
lfingers 7.12502
lthumb 5.12519 68.8522
rfemur -61.0776 -31.3615 34.1724
rtibia 61.734
rfoot -19.7235 -7.89621
rtoes -5.52951
lfemur -64.9903 -12.0668 -14.1933
ltibia 58.351
lfoot -11.815 -7.29947
ltoes -15.456
1627
root 0.261804 16.1777 -1.85747 21.1827 29.5712 -1.17546
lowerback 26.0266 1.94611 7.95951
upperback 6.47452 4.71284 0.602651
thorax -6.58198 2.23344 -5.32334
lowerneck -2.00469 -4.50799 4.83071
upperneck -15.921 -6.29742 -2.47074
head -4.68313 -3.22912 -1.3331
rclavicle -2.8625e-014 3.10104e-014
rhumerus 77.2563 -9.33819 -52.0105
rradius 34.0983
rwrist 43.6825
rhand 20.4127 0.370674
rfingers 7.12502
rthumb 44.9194 -23.1606
lclavicle -2.8625e-014 3.10104e-014
lhumerus -36.2413 -2.08141 73.0041
lradius 91.3764
lwrist 24.6411
lhand -21.3722 39.3134
lfingers 7.12502
lthumb 5.01501 69.2341
rfemur -61.3035 -31.6188 34.3573
rtibia 61.8415
rfoot -19.8048 -7.9496
rtoes -5.7354
lfemur -65.1868 -12.201 -14.1557
ltibia 58.3627
lfoot -11.7591 -7.48072
ltoes -15.2468
1628
root 0.257581 16.172 -1.85329 21.2832 29.833 -1.0845
lowerback 26.0585 1.99145 7.91978
upperback 6.4691 4.75912 0.541625
thorax -6.59526 2.25558 -5.38404
lowerneck -2.07902 -4.57411 4.79741
upperneck -15.9345 -6.37776 -2.37377
head -4.67435 -3.27213 -1.29634
rclavicle -2.70347e-014 6.04305e-014
rhumerus 77.2811 -9.31202 -52.2749
rradius 34.0619
rwrist 43.6548
rhand 20.4008 0.290135
rfingers 7.12502
rthumb 44.9082 -23.2455
lclavicle -2.70347e-014 6.04305e-014
lhumerus -36.3 -2.09159 72.9237
lradius 91.525
lwrist 24.6656
lhand -21.5301 39.6217
lfingers 7.12502
lthumb 4.8625 69.5459
rfemur -61.4362 -31.7928 34.4008
rtibia 61.9455
rfoot -19.8667 -7.93778
rtoes -5.57339
lfemur -65.304 -12.306 -14.1938
ltibia 58.3794
lfoot -11.7314 -7.63935
ltoes -14.8344
1629
root 0.252365 16.1664 -1.85041 21.3167 30.1344 -1.10781
lowerback 26.1781 2.0656 7.88169
upperback 6.42838 4.863 0.606115
thorax -6.6959 2.29862 -5.33143
lowerneck -2.17534 -4.67672 4.66506
upperneck -15.8563 -6.51636 -2.31736
head -4.63346 -3.33668 -1.25524
rclavicle 1.39944e-013 3.97569e-015
rhumerus 77.2756 -9.25738 -52.2921
rradius 34.0576
rwrist 43.4294
rhand 20.3953 0.151555
rfingers 7.12502
rthumb 44.9032 -23.386
lclavicle 1.39944e-013 3.97569e-015
lhumerus -36.4119 -2.07186 72.9866
lradius 91.6342
lwrist 24.6159
lhand -21.5763 39.6739
lfingers 7.12502
lthumb 4.81791 69.5991
rfemur -61.5429 -31.9344 34.5468
rtibia 62.0382
rfoot -19.9326 -8.05619
rtoes -6.01418
lfemur -65.429 -12.3941 -14.1117
ltibia 58.4032
lfoot -11.6885 -7.86408
ltoes -14.2203
1630
root 0.248218 16.1603 -1.84727 21.3639 30.444 -1.17476
lowerback 26.2808 2.15557 7.8105
upperback 6.3699 4.9854 0.754795
thorax -6.81757 2.34884 -5.17242
lowerneck -2.29829 -4.77945 4.43221
upperneck -15.7398 -6.6667 -2.32941
head -4.57504 -3.39813 -1.21992
rclavicle -4.37326e-014 2.38542e-014
rhumerus 77.2891 -9.1351 -52.2256
rradius 34.0869
rwrist 43.1811
rhand 20.4988 0.0802872
rfingers 7.12502
rthumb 44.9995 -23.4195
lclavicle -4.37326e-014 2.38542e-014
lhumerus -36.5833 -1.95068 73.2033
lradius 91.7343
lwrist 24.6177
lhand -21.6849 39.5598
lfingers 7.12502
lthumb 4.71301 69.4874
rfemur -61.657 -32.0432 34.7328
rtibia 62.1181
rfoot -20.104 -8.03173
rtoes -5.35258
lfemur -65.5979 -12.4886 -13.9659
ltibia 58.4236
lfoot -11.6617 -8.05753
ltoes -13.9591
1631
root 0.244526 16.1565 -1.84295 21.4353 30.7019 -1.16745
lowerback 26.2933 2.23644 7.80903
upperback 6.39138 5.09002 0.765889
thorax -6.78678 2.40138 -5.18933
lowerneck -2.47645 -4.87392 4.36227
upperneck -15.7167 -6.80211 -2.32568
head -4.54099 -3.46231 -1.2074
rclavicle -3.49861e-014 -2.38542e-015
rhumerus 77.3095 -9.16421 -52.3772
rradius 34.1063
rwrist 43.0509
rhand 20.5153 0.127348
rfingers 7.12502
rthumb 45.0148 -23.3664
lclavicle -3.49861e-014 -2.38542e-015
lhumerus -36.5626 -1.94048 73.2526
lradius 91.7852
lwrist 24.6339
lhand -21.7523 39.4376
lfingers 7.12502
lthumb 4.64798 69.3666
rfemur -61.7559 -32.1329 34.8242
rtibia 62.1992
rfoot -20.2009 -8.11671
rtoes -5.16835
lfemur -65.7296 -12.5816 -13.8972
ltibia 58.4366
lfoot -11.5924 -8.28294
ltoes -13.2998
1632
root 0.240921 16.1547 -1.83876 21.5305 30.9384 -1.02925
lowerback 26.303 2.25699 7.77775
upperback 6.43826 5.09818 0.657667
thorax -6.72977 2.41115 -5.29194
lowerneck -2.5947 -4.933 4.4173
upperneck -15.744 -6.87929 -2.27813
head -4.5334 -3.50639 -1.20172
rclavicle -4.13472e-014 -8.74653e-015
rhumerus 77.4135 -9.15306 -52.7874
rradius 34.0646
rwrist 43.0595
rhand 20.4515 0.106117
rfingers 7.12502
rthumb 44.9554 -23.411
lclavicle -4.13472e-014 -8.74653e-015
lhumerus -36.5399 -1.86838 73.0759
lradius 91.8516
lwrist 24.6432
lhand -21.6692 39.4047
lfingers 7.12502
lthumb 4.72815 69.3319
rfemur -61.846 -32.3089 34.8019
rtibia 62.2928
rfoot -20.2395 -8.29139
rtoes -5.61622
lfemur -65.788 -12.6954 -13.9834
ltibia 58.4289
lfoot -11.5526 -8.47879
ltoes -12.8397
1633
root 0.238063 16.1505 -1.83553 21.6182 31.2066 -0.887881
lowerback 26.3957 2.29641 7.81245
upperback 6.40362 5.15502 0.516049
thorax -6.78864 2.43411 -5.49315
lowerneck -2.65735 -5.04301 4.58712
upperneck -15.6787 -7.0217 -2.22932
head -4.51327 -3.58943 -1.21092
rclavicle -1.43125e-014 2.54444e-014
rhumerus 77.3687 -9.17039 -53.1861
rradius 33.9669
rwrist 43.1041
rhand 20.3838 0.129708
rfingers 7.12502
rthumb 44.8924 -23.4121
lclavicle -1.43125e-014 2.54444e-014
lhumerus -36.5801 -1.90801 72.8832
lradius 91.8966
lwrist 24.5712
lhand -21.5157 39.5482
lfingers 7.12502
lthumb 4.87641 69.4721
rfemur -61.9639 -32.5855 34.8199
rtibia 62.396
rfoot -20.2737 -8.33594
rtoes -5.89405
lfemur -65.8493 -12.8584 -14.0562
ltibia 58.4307
lfoot -11.5456 -8.59022
ltoes -12.7935
